<?xml version="1.0" encoding="UTF-8" standalone="no"?>
<!-- Created with Inkscape (http://www.inkscape.org/) -->

<svg
   version="1.1"
   id="svg2"
   xml:space="preserve"
   width="405.86624"
   height="523.15118"
   viewBox="0 0 405.86624 523.15118"
   sodipodi:docname="sam3.svg"
   inkscape:version="1.1.1 (3bf5ae0d25, 2021-09-20, custom)"
   xmlns:inkscape="http://www.inkscape.org/namespaces/inkscape"
   xmlns:sodipodi="http://sodipodi.sourceforge.net/DTD/sodipodi-0.dtd"
   xmlns="http://www.w3.org/2000/svg"
   xmlns:svg="http://www.w3.org/2000/svg"><defs
     id="defs6"><clipPath
       clipPathUnits="userSpaceOnUse"
       id="clipPath16"><path
         d="M 0,595.276 H 841.89 V 0 H 0 Z"
         id="path14" /></clipPath><clipPath
       clipPathUnits="userSpaceOnUse"
       id="clipPath44"><path
         d="m 217.025,134.745 h 56.586 V 82.3506 h -56.586 z"
         id="path42" /></clipPath><linearGradient
       x1="0"
       y1="0"
       x2="1"
       y2="0"
       gradientUnits="userSpaceOnUse"
       gradientTransform="matrix(-14.029309,60.531921,60.531921,14.029309,254.83318,78.187134)"
       spreadMethod="pad"
       id="linearGradient54"><stop
         style="stop-opacity:1;stop-color:#004519"
         offset="0"
         id="stop50" /><stop
         style="stop-opacity:1;stop-color:#d1e6ce"
         offset="1"
         id="stop52" /></linearGradient><clipPath
       clipPathUnits="userSpaceOnUse"
       id="clipPath76"><path
         d="m 269.316,155.494 h 43.432 V 84.3093 h -43.432 z"
         id="path74" /></clipPath><linearGradient
       x1="0"
       y1="0"
       x2="1"
       y2="0"
       gradientUnits="userSpaceOnUse"
       gradientTransform="matrix(-14.336326,61.856598,61.856598,14.336326,302.92853,88.304764)"
       spreadMethod="pad"
       id="linearGradient86"><stop
         style="stop-opacity:1;stop-color:#004519"
         offset="0"
         id="stop82" /><stop
         style="stop-opacity:1;stop-color:#d1e6ce"
         offset="1"
         id="stop84" /></linearGradient><clipPath
       clipPathUnits="userSpaceOnUse"
       id="clipPath116"><path
         d="m 105.938,225.254 h 122.04 v -88.347 h -122.04 z"
         id="path114" /></clipPath><linearGradient
       x1="0"
       y1="0"
       x2="1"
       y2="0"
       gradientUnits="userSpaceOnUse"
       gradientTransform="matrix(-14.65332,76.117409,76.117409,14.65332,174.68439,148.37431)"
       spreadMethod="pad"
       id="linearGradient126"><stop
         style="stop-opacity:1;stop-color:#004519"
         offset="0"
         id="stop122" /><stop
         style="stop-opacity:1;stop-color:#d1e6ce"
         offset="1"
         id="stop124" /></linearGradient><clipPath
       clipPathUnits="userSpaceOnUse"
       id="clipPath156"><path
         d="M 262.391,264.686 H 407.192 V 213.473 H 262.391 Z"
         id="path154" /></clipPath><linearGradient
       x1="0"
       y1="0"
       x2="1"
       y2="0"
       gradientUnits="userSpaceOnUse"
       gradientTransform="matrix(-26.728968,72.760857,-72.760857,-26.728968,347.18564,193.1064)"
       spreadMethod="pad"
       id="linearGradient166"><stop
         style="stop-opacity:1;stop-color:#004519"
         offset="0"
         id="stop162" /><stop
         style="stop-opacity:1;stop-color:#d1e6ce"
         offset="1"
         id="stop164" /></linearGradient><clipPath
       clipPathUnits="userSpaceOnUse"
       id="clipPath196"><path
         d="M 174.136,267.854 H 298.784 V 227.07 H 174.136 Z"
         id="path194" /></clipPath><linearGradient
       x1="0"
       y1="0"
       x2="1"
       y2="0"
       gradientUnits="userSpaceOnUse"
       gradientTransform="matrix(4.8395267,-29.682648,-27.255257,-4.4437623,234.57082,261.19907)"
       spreadMethod="pad"
       id="linearGradient206"><stop
         style="stop-opacity:1;stop-color:#004519"
         offset="0"
         id="stop202" /><stop
         style="stop-opacity:1;stop-color:#d1e6ce"
         offset="1"
         id="stop204" /></linearGradient><clipPath
       clipPathUnits="userSpaceOnUse"
       id="clipPath240"><path
         d="M 184.258,460.139 C 122.693,444.837 85.189,382.524 100.492,320.959 v 0 c 15.302,-61.565 77.615,-99.068 139.18,-83.766 v 0 c 61.565,15.303 99.067,77.616 83.765,139.18 v 0 c -12.991,52.265 -59.854,87.189 -111.385,87.185 v 0 c -9.169,-10e-4 -18.494,-1.107 -27.794,-3.419"
         id="path238" /></clipPath><clipPath
       clipPathUnits="userSpaceOnUse"
       id="clipPath248"><path
         d="m 127.23,492.358 h 91.591 V 394.367 H 127.23 Z"
         id="path246" /></clipPath><clipPath
       clipPathUnits="userSpaceOnUse"
       id="clipPath288"><path
         d="m 225.923,491.575 h 91.591 v -97.991 h -91.591 z"
         id="path286" /></clipPath><clipPath
       clipPathUnits="userSpaceOnUse"
       id="clipPath328"><path
         d="m 275.27,409.331 h 91.591 V 311.34 H 275.27 Z"
         id="path326" /></clipPath><clipPath
       clipPathUnits="userSpaceOnUse"
       id="clipPath368"><path
         d="m 247.855,330.219 h 91.591 v -97.991 h -91.591 z"
         id="path366" /></clipPath><clipPath
       clipPathUnits="userSpaceOnUse"
       id="clipPath408"><path
         d="m 160.158,292.724 h 91.591 v -97.991 h -91.591 z"
         id="path406" /></clipPath><clipPath
       clipPathUnits="userSpaceOnUse"
       id="clipPath448"><path
         d="M 89.6627,335.021 H 181.254 V 237.03 H 89.6627 Z"
         id="path446" /></clipPath><clipPath
       clipPathUnits="userSpaceOnUse"
       id="clipPath488"><path
         d="M 77.9135,427.448 H 169.504 V 329.457 H 77.9135 Z"
         id="path486" /></clipPath><clipPath
       clipPathUnits="userSpaceOnUse"
       id="clipPath528"><path
         d="M 0,595.276 H 841.89 V 0 H 0 Z"
         id="path526" /></clipPath><clipPath
       clipPathUnits="userSpaceOnUse"
       id="clipPath548"><path
         d="m 143.805,422.802 h 143.959 v -59.68 H 143.805 Z"
         id="path546" /></clipPath><linearGradient
       x1="0"
       y1="0"
       x2="1"
       y2="0"
       gradientUnits="userSpaceOnUse"
       gradientTransform="matrix(140.37624,34.891148,34.891148,-140.37624,142.23251,374.59894)"
       spreadMethod="pad"
       id="linearGradient558"><stop
         style="stop-opacity:1;stop-color:#000000"
         offset="0"
         id="stop554" /><stop
         style="stop-opacity:1;stop-color:#6a9bff"
         offset="1"
         id="stop556" /></linearGradient><clipPath
       clipPathUnits="userSpaceOnUse"
       id="clipPath580"><path
         d="m 200.463,275.128 h 77.926 v -28.947 h -77.926 z"
         id="path578" /></clipPath><linearGradient
       x1="0"
       y1="0"
       x2="1"
       y2="0"
       gradientUnits="userSpaceOnUse"
       gradientTransform="matrix(78.167831,19.428966,19.428966,-78.167831,201.15709,250.80524)"
       spreadMethod="pad"
       id="linearGradient590"><stop
         style="stop-opacity:1;stop-color:#000000"
         offset="0"
         id="stop586" /><stop
         style="stop-opacity:1;stop-color:#6a9bff"
         offset="1"
         id="stop588" /></linearGradient><clipPath
       clipPathUnits="userSpaceOnUse"
       id="clipPath620"><path
         d="M 178.387,237.705 H 316.93 V 123.368 H 178.387 Z"
         id="path618" /></clipPath><linearGradient
       x1="0"
       y1="0"
       x2="1"
       y2="0"
       gradientUnits="userSpaceOnUse"
       gradientTransform="matrix(-22.712809,97.998406,97.998406,22.712809,267.38034,124.97034)"
       spreadMethod="pad"
       id="linearGradient630"><stop
         style="stop-opacity:1;stop-color:#004519"
         offset="0"
         id="stop626" /><stop
         style="stop-opacity:1;stop-color:#d1e6ce"
         offset="1"
         id="stop628" /></linearGradient><clipPath
       clipPathUnits="userSpaceOnUse"
       id="clipPath652"><path
         d="m 235.147,154.666 h 63.237 v -25.768 h -63.237 z"
         id="path650" /></clipPath><linearGradient
       x1="0"
       y1="0"
       x2="1"
       y2="0"
       gradientUnits="userSpaceOnUse"
       gradientTransform="matrix(-4.1853938,18.058618,18.058618,4.1853938,270.20419,130.73421)"
       spreadMethod="pad"
       id="linearGradient662"><stop
         style="stop-opacity:1;stop-color:#d4e2ff"
         offset="0"
         id="stop658" /><stop
         style="stop-opacity:1;stop-color:#000000"
         offset="1"
         id="stop660" /></linearGradient><clipPath
       clipPathUnits="userSpaceOnUse"
       id="clipPath688"><path
         d="m 521.698,378.442 c -13.319,-62.025 26.164,-123.101 88.189,-136.42 v 0 c 62.024,-13.319 123.101,26.165 136.42,88.19 v 0 c 13.318,62.023 -26.166,123.101 -88.19,136.419 v 0 c -8.128,1.745 -16.239,2.584 -24.229,2.584 v 0 c -52.982,0 -100.617,-36.877 -112.19,-90.773"
         id="path686" /></clipPath><clipPath
       clipPathUnits="userSpaceOnUse"
       id="clipPath696"><path
         d="m 594.679,506.38 h 95.957 V 405.663 h -95.957 z"
         id="path694" /></clipPath><clipPath
       clipPathUnits="userSpaceOnUse"
       id="clipPath736"><path
         d="m 682.981,462.292 h 95.957 V 361.576 h -95.957 z"
         id="path734" /></clipPath><clipPath
       clipPathUnits="userSpaceOnUse"
       id="clipPath776"><path
         d="m 691.15,366.728 h 95.958 V 266.012 H 691.15 Z"
         id="path774" /></clipPath><clipPath
       clipPathUnits="userSpaceOnUse"
       id="clipPath816"><path
         d="m 631.75,307.722 h 95.958 V 207.006 H 631.75 Z"
         id="path814" /></clipPath><clipPath
       clipPathUnits="userSpaceOnUse"
       id="clipPath856"><path
         d="m 536.498,312.594 h 95.957 V 211.878 h -95.957 z"
         id="path854" /></clipPath><clipPath
       clipPathUnits="userSpaceOnUse"
       id="clipPath896"><path
         d="M 491.772,381.574 H 587.73 V 280.857 h -95.958 z"
         id="path894" /></clipPath><clipPath
       clipPathUnits="userSpaceOnUse"
       id="clipPath936"><path
         d="m 521.849,469.756 h 95.957 V 369.04 h -95.957 z"
         id="path934" /></clipPath><clipPath
       clipPathUnits="userSpaceOnUse"
       id="clipPath976"><path
         d="M 0,595.276 H 841.89 V 0 H 0 Z"
         id="path974" /></clipPath><clipPath
       clipPathUnits="userSpaceOnUse"
       id="clipPath992"><path
         d="M 581.092,424.961 H 719.826 V 351.868 H 581.092 Z"
         id="path990" /></clipPath><linearGradient
       x1="0"
       y1="0"
       x2="1"
       y2="0"
       gradientUnits="userSpaceOnUse"
       gradientTransform="matrix(141.42369,-30.368051,-30.368051,-141.42369,582.76788,408.27258)"
       spreadMethod="pad"
       id="linearGradient1002"><stop
         style="stop-opacity:1;stop-color:#000000"
         offset="0"
         id="stop998" /><stop
         style="stop-opacity:1;stop-color:#6a9bff"
         offset="1"
         id="stop1000" /></linearGradient><clipPath
       clipPathUnits="userSpaceOnUse"
       id="clipPath1024"><path
         d="m 581.591,278.32 h 79.348 v -26.464 h -79.348 z"
         id="path1022" /></clipPath><linearGradient
       x1="0"
       y1="0"
       x2="1"
       y2="0"
       gradientUnits="userSpaceOnUse"
       gradientTransform="matrix(78.751099,-16.910303,-16.910303,-78.751099,581.27612,271.17859)"
       spreadMethod="pad"
       id="linearGradient1034"><stop
         style="stop-opacity:1;stop-color:#000000"
         offset="0"
         id="stop1030" /><stop
         style="stop-opacity:1;stop-color:#6a9bff"
         offset="1"
         id="stop1032" /></linearGradient></defs><sodipodi:namedview
     id="namedview4"
     pagecolor="#505050"
     bordercolor="#eeeeee"
     borderopacity="1"
     inkscape:pageshadow="0"
     inkscape:pageopacity="0"
     inkscape:pagecheckerboard="0"
     showgrid="false"
     inkscape:zoom="1.035654"
     inkscape:cx="426.30068"
     inkscape:cy="298.36219"
     inkscape:window-width="1920"
     inkscape:window-height="1026"
     inkscape:window-x="0"
     inkscape:window-y="22"
     inkscape:window-maximized="1"
     inkscape:current-layer="g12" /><g
     id="g8"
     inkscape:groupmode="layer"
     inkscape:label="CHAT BOT SAM"
     transform="matrix(1.3333333,0,0,-1.3333333,-129.32076,618.07732)"><g
       id="g10"
       transform="rotate(-11.983781,226.8995,230.48277)"><g
         id="g12"
         clip-path="url(#clipPath16)"><g
           id="g22"
           transform="translate(269.397,124.1642)"><path
             d="M 0,0 C 0,0 0.004,-0.019 0.013,-0.055 0.327,-1.492 6.358,-29.33 3.4,-41.813 c -0.756,-3.254 -2.136,-5.467 -4.39,-5.894 -7.951,-1.498 -33.525,27.585 -44.954,44.803 -2.616,3.944 -4.493,7.257 -5.228,9.438 -0.542,1.596 -0.502,2.58 0.292,2.783 1.625,0.414 3.293,0.725 4.968,0.922 0.226,0.014 0.448,0.046 0.675,0.061 C -25.111,12.479 -2.517,1.29 -0.193,0.089 -0.063,0.023 0,0 0,0"
             style="fill:#bfe2cf;fill-opacity:1;fill-rule:nonzero;stroke:none"
             id="path24" /></g><g
           id="g26"
           transform="translate(269.397,124.1642)"><path
             d="m 0,0 c -25.551,-8.313 -46.095,1.458 -51.172,6.534 -1.31,1.283 -1.578,2.274 -0.651,2.565 1.835,0.578 3.816,0.941 5.911,1.14 0.226,0.014 0.448,0.046 0.675,0.061 C -27.356,11.69 -2.678,1.157 -0.193,0.089 -0.063,0.023 0,0 0,0"
             style="fill:#205b41;fill-opacity:1;fill-rule:nonzero;stroke:none"
             id="path28" /></g><g
           id="g30"
           transform="translate(312.5034,152.5109)"><path
             d="m 0,0 c 0.344,-2.559 0.027,-7.05 -0.781,-12.553 -3.006,-20.773 -12.838,-56.15 -20.438,-58.256 -1.852,-0.505 -3.699,0.367 -5.502,2.205 -8.793,8.899 -16.373,40.203 -16.373,40.203 0,0 0.046,0.048 0.134,0.165 1.577,2.105 16.983,22.177 36.065,29.028 0.159,0.056 0.336,0.116 0.527,0.199 1.61,0.564 3.244,1.019 4.886,1.362 C -0.698,2.516 -0.211,1.652 0,0"
             style="fill:#bfe2cf;fill-opacity:1;fill-rule:nonzero;stroke:none"
             id="path32" /></g><g
           id="g34"
           transform="translate(312.5034,152.5109)"><path
             d="m 0,0 c -2.263,-6.738 -16.434,-24.632 -43.094,-28.401 0,0 0.046,0.048 0.134,0.165 1.757,2.07 19.369,22.443 36.065,29.028 0.159,0.056 0.336,0.116 0.527,0.199 1.951,0.738 3.909,1.288 5.811,1.576 C 0.403,2.713 0.594,1.725 0,0"
             style="fill:#205b41;fill-opacity:1;fill-rule:nonzero;stroke:none"
             id="path36" /></g><g
           id="g38"><g
             id="g40" /><g
             id="g68"><g
               clip-path="url(#clipPath44)"
               opacity="0.300003"
               id="g66"><g
                 id="g64"><g
                   id="g62"><g
                     id="g60"><g
                       id="g58"><path
                         d="m 269.397,124.164 c 0,0 0.004,-0.018 0.013,-0.054 0.314,-1.438 6.345,-29.276 3.387,-41.759 0,0 -8.339,28.967 -17.681,33.8 -9.328,4.855 -31.663,5.109 -31.663,5.109 -2.616,3.944 -4.493,7.257 -5.228,9.438 -1.31,1.284 -1.578,2.274 -0.651,2.565 1.835,0.578 3.816,0.941 5.911,1.141 0.226,0.013 0.448,0.045 0.675,0.06 20.126,2.179 42.72,-9.01 45.044,-10.211 0.13,-0.065 0.193,-0.089 0.193,-0.089"
                         style="fill:url(#linearGradient54);stroke:none"
                         id="path56" /></g></g></g></g></g></g></g><g
           id="g70"><g
             id="g72" /><g
             id="g100"><g
               clip-path="url(#clipPath76)"
               opacity="0.300003"
               id="g98"><g
                 id="g96"><g
                   id="g94"><g
                     id="g92"><g
                       id="g90"><path
                         d="m 312.41,152.913 c 0.344,-2.558 0.027,-7.05 -0.781,-12.552 -3.503,-1.634 -21.945,-10.669 -26.073,-24.207 -3.462,-11.3 -1.203,-25.5 0.133,-31.844 -8.793,8.898 -16.373,40.202 -16.373,40.202 0,0 0.046,0.049 0.134,0.165 1.577,2.105 16.983,22.178 36.065,29.028 0.159,0.056 0.337,0.116 0.527,0.199 1.952,0.739 3.909,1.289 5.812,1.576 0.96,0.146 1.15,-0.842 0.556,-2.567"
                         style="fill:url(#linearGradient86);stroke:none"
                         id="path88" /></g></g></g></g></g></g></g><g
           id="g102"
           transform="translate(244.7314,105.1457)"><path
             d="M 0,0 C -1.523,-1.189 3.636,-9.102 5.949,-8.375 8.261,-7.648 1.778,1.388 0,0"
             style="fill:#ffffff;fill-opacity:1;fill-rule:nonzero;stroke:none"
             id="path104" /></g><g
           id="g106"
           transform="translate(228.911,224.089)"><path
             d="m 0,0 c 0,0 -100.143,-83.874 -109.47,-84.747 -9.326,-0.874 -9.261,20.717 -9.261,20.717 0.94,1.669 12.472,14.571 13.628,16.379 l 0.814,0.932 c 14.475,19.422 36.956,45.35 49.501,57.486 l 0.013,0.019 c 5.276,5.108 9.032,8.03 9.887,7.37 C -38.431,13.269 0,0 0,0"
             style="fill:#bfe2cf;fill-opacity:1;fill-rule:nonzero;stroke:none"
             id="path108" /></g><g
           id="g110"
           transform="translate(97.140408,162.72493)"><g
             id="g112" /><g
             id="g140"
             transform="translate(-92.898408,-160.31493)"><g
               clip-path="url(#clipPath116)"
               opacity="0.300003"
               id="g138"><g
                 id="g136"><g
                   id="g134"><g
                     id="g132"><g
                       id="g130"><path
                         d="m 227.978,224.231 c 0,0 -103.452,-86.425 -112.779,-87.298 -9.326,-0.874 -9.261,20.716 -9.261,20.716 0.94,1.67 2.012,3.413 3.168,5.22 l 0.013,0.019 c 0,0 10.595,-3.783 27.61,2.274 17.03,6.061 17.774,52.611 17.774,52.611 l 0.013,0.018 c 5.276,5.109 9.032,8.031 9.887,7.37 6.457,-4.886 63.575,-0.93 63.575,-0.93"
                         style="fill:url(#linearGradient126);stroke:none"
                         id="path128" /></g></g></g></g></g></g></g><g
           id="g186"
           transform="translate(175.8555,229.0246)"><path
             d="m 0,0 c -1.026,23.653 19.524,44.013 54.369,51.556 30.327,6.564 58.36,2.69 70.302,-16.623 11.939,-19.296 18.844,-58.271 15.725,-84.152 -0.466,-3.865 -1.245,-7.656 -2.324,-11.339 l -0.011,-0.037 c -0.978,-3.327 -2.187,-6.565 -3.641,-9.663 -0.016,-0.02 -0.012,-0.037 -0.012,-0.037 -7.614,-16.3 -21.557,-28.893 -39.865,-32.855 -19.064,-4.127 -35.275,-0.74 -47.608,6.796 -5.734,3.502 -10.642,7.902 -14.598,12.857 -4.56,5.699 -8.736,11.885 -12.45,18.397 -0.012,0.05 -0.048,0.113 -0.089,0.191 C 8.138,-44.537 0.922,-21.121 0,0"
             style="fill:#edfcf3;fill-opacity:1;fill-rule:nonzero;stroke:none"
             id="path188" /></g><g
           id="g190"><g
             id="g192" /><g
             id="g220"><g
               clip-path="url(#clipPath196)"
               opacity="0.300003"
               id="g218"><g
                 id="g216"><g
                   id="g214"><g
                     id="g212"><g
                       id="g210"><path
                         d="m 174.136,234.875 c 8.638,12.917 65.186,28.837 98.82,32.19 29.282,2.918 25.754,-3.144 25.639,-3.851 -0.025,-0.024 -0.022,-0.043 -0.022,-0.043 -12.986,-18.585 -44.438,-29.254 -70.253,-33.463 -26.882,-4.383 -38.361,-3.723 -54.184,5.167"
                         style="fill:url(#linearGradient206);stroke:none"
                         id="path208" /></g></g></g></g></g></g></g><g
           id="g222"
           transform="translate(294.0479,244.7736)"><path
             d="m 0,0 c -1.666,-1.014 1.621,-15.591 4.055,-17.498 2.435,-1.906 5.301,-0.482 5.518,3.18 C 9.79,-10.656 2.522,1.535 0,0"
             style="fill:#ffffff;fill-opacity:1;fill-rule:nonzero;stroke:none"
             id="path224" /></g><g
           id="g226"
           transform="translate(302.3379,224.1701)"><path
             d="M 0,0 C -1.422,-0.707 -0.759,-4.357 0.229,-5.459 1.216,-6.561 3.771,-5.684 3.84,-4.052 3.909,-2.42 1.433,0.713 0,0"
             style="fill:#ffffff;fill-opacity:1;fill-rule:nonzero;stroke:none"
             id="path228" /></g><g
           id="g230"
           transform="translate(324.0474,375.9919)"><path
             d="m 0,0 c 15.302,-61.565 -22.201,-123.877 -83.766,-139.18 -61.565,-15.302 -123.878,22.201 -139.179,83.766 -15.303,61.564 22.2,123.877 83.765,139.18 C -77.615,99.068 -15.302,61.564 0,0"
             style="fill:#bfe2cf;fill-opacity:1;fill-rule:nonzero;stroke:none"
             id="path232" /></g></g></g><g
       id="g522"
       transform="rotate(-15,366.12818,-979.23303)"><g
         id="g524"
         clip-path="url(#clipPath528)"
         transform="translate(-314.64011,-72.705746)"><g
           id="g530"
           transform="translate(313.7031,361.3327)"><path
             d="m 0,0 c 12.616,-50.757 -21.469,-102.918 -76.13,-116.505 -54.662,-13.586 -109.202,16.547 -121.818,67.304 -12.616,50.758 21.469,102.919 76.131,116.506 C -67.156,80.891 -12.616,50.758 0,0"
             style="fill:#205b41;fill-opacity:1;fill-rule:nonzero;stroke:none"
             id="path532" /></g><g
           id="g534"
           transform="translate(202.2046,291.7531)" /><g
           id="g538"
           transform="translate(225.1729,448.0612)"><path
             d="M 0,0 C -1.809,-3.761 31.726,-9.192 35.289,-6.326 38.853,-3.46 6.047,12.572 0,0"
             style="fill:#ffffff;fill-opacity:1;fill-rule:nonzero;stroke:none"
             id="path540" /></g><g
           id="g606"
           transform="translate(141.0498,312.7131)" /><g
           id="g614"
           transform="translate(17.140667,-3.4050561)"><g
             id="g616" /><g
             id="g644"
             transform="translate(-7.2158037,-0.34118877)"><g
               clip-path="url(#clipPath620)"
               opacity="0.300003"
               id="g642"><g
                 id="g640"><g
                   id="g638"><g
                     id="g636"><g
                       id="g634"><path
                         d="m 178.387,207.608 c 0,0 15.067,-72.646 81.047,-67.543 0,0 63.67,2.484 51.475,97.64 0,0 29.062,-94.623 -40.511,-111.831 0,0 -65.57,-24.814 -92.011,81.734"
                         style="fill:url(#linearGradient630);stroke:none"
                         id="path632" /></g></g></g></g></g></g></g></g></g><g
       id="g970"><g
         id="g972"
         clip-path="url(#clipPath976)"><g
           id="g1062"
           transform="translate(218.6392,192.9572)"><path
             d="M 0,0 C 0.286,-1.284 1.05,-2.163 2.267,-2.648 2.548,-2.761 2.848,-2.82 3.148,-2.874 5.056,-3.21 6.417,-4.273 7.037,-6.099 7.94,-8.757 6.622,-11.337 4.163,-12.29 c -1.902,-0.737 -4.014,-0.198 -5.363,1.265 -1.341,1.453 -1.66,3.687 -0.798,5.451 0.641,1.31 0.458,2.576 -0.342,3.776 -0.154,0.231 -0.317,0.346 -0.592,0.237 -0.032,-0.012 -0.075,0 -0.112,0.002 0.087,0.107 0.244,0.063 0.338,0.156 -0.004,0.086 -0.073,0.128 -0.127,0.178 -0.471,0.447 -1.035,0.704 -1.655,0.889 -1.552,0.461 -2.476,1.491 -2.772,3.098 -0.349,1.896 1.015,4.337 3.744,4.36 C -0.876,7.144 0.919,4.575 0.07,2.071 -0.048,1.722 -0.144,1.363 -0.139,0.995 -0.134,0.661 -0.195,0.311 0,0"
             style="fill:#9ac0b0;fill-opacity:1;fill-rule:nonzero;stroke:none"
             id="path1064" /></g><g
           id="g1066"
           transform="translate(210.4434,192.1476)"><path
             d="m 0,0 c -0.159,-0.063 -0.298,0.023 -0.44,0.063 -0.744,0.211 -1.508,0.251 -2.256,0.114 -1.021,-0.189 -1.94,-0.636 -2.727,-1.333 -0.812,-0.719 -1.352,-1.598 -1.609,-2.652 -0.304,-1.247 -0.947,-2.283 -1.958,-3.079 -0.643,-0.508 -1.362,-0.855 -2.171,-1.035 -1.191,-0.265 -2.345,-0.18 -3.453,0.319 -1.481,0.666 -2.495,1.764 -3.024,3.319 -0.93,2.735 0.524,5.837 3.263,6.852 1.213,0.45 2.444,0.511 3.682,0.094 0.652,-0.22 1.316,-0.333 2.011,-0.315 0.939,0.023 1.788,0.314 2.583,0.782 1.182,0.695 2.013,1.679 2.405,3.009 0.021,0.071 0.03,0.152 0.119,0.178 C -3.541,5.927 -3.534,5.534 -3.47,5.15 -3.131,3.112 -2.128,1.489 -0.417,0.314 -0.274,0.217 -0.097,0.159 0,0"
             style="fill:#9ac0b0;fill-opacity:1;fill-rule:nonzero;stroke:none"
             id="path1068" /></g><g
           id="g1070"
           transform="translate(207.9287,202.1271)"><path
             d="m 0,0 c 0.098,0.533 0.208,1.062 0.201,1.612 -0.031,2.134 -1.54,4.514 -3.98,5.123 -0.746,0.186 -1.45,0.465 -2.062,0.935 -1.722,1.324 -2.501,3.083 -2.188,5.227 0.312,2.143 1.542,3.644 3.59,4.377 2.99,1.071 6.188,-0.567 7.113,-3.604 C 3.02,12.534 2.977,11.395 2.582,10.272 2.24,9.3 2.184,8.312 2.455,7.319 3,5.324 4.236,3.978 6.241,3.374 6.336,3.345 6.442,3.348 6.523,3.277 6.401,3.244 6.279,3.232 6.15,3.234 5.208,3.253 4.282,3.109 3.417,2.749 2.14,2.216 1.051,1.417 0.271,0.245 0.202,0.142 0.148,0.018 0,0"
             style="fill:#1c684c;fill-opacity:1;fill-rule:nonzero;stroke:none"
             id="path1072" /></g><g
           id="g1074"
           transform="translate(257.7236,196.6418)"><path
             d="M 0,0 C 0.282,0.452 0.506,0.892 0.798,1.292 1.961,2.892 3.561,3.634 5.509,3.616 6.712,3.604 7.64,3.042 8.268,2.006 8.326,1.909 8.381,1.81 8.443,1.702 8.591,1.79 8.625,1.947 8.696,2.075 c 0.534,0.955 1.21,1.78 2.176,2.333 0.969,0.556 2.019,0.836 3.131,0.757 1.756,-0.126 3.004,-0.981 3.497,-2.845 0.11,-0.417 0.21,-0.836 0.289,-1.259 0.532,-2.853 1.056,-5.707 1.583,-8.56 0.006,-0.038 0.01,-0.076 0.021,-0.112 0.055,-0.181 0.011,-0.277 -0.197,-0.311 -0.613,-0.1 -1.221,-0.224 -1.833,-0.333 -0.252,-0.046 -0.257,-0.04 -0.311,0.234 -0.087,0.447 -0.168,0.896 -0.253,1.344 -0.444,2.341 -0.889,4.681 -1.33,7.022 -0.064,0.338 -0.16,0.666 -0.268,0.99 C 14.774,2.623 13.625,3.349 12.282,3.186 11.942,3.145 11.606,3.08 11.284,2.958 10.423,2.633 9.858,2.027 9.553,1.161 9.299,0.441 9.25,-0.296 9.302,-1.049 c 0.069,-0.974 0.235,-1.936 0.41,-2.895 0.311,-1.696 0.631,-3.389 0.947,-5.083 0.017,-0.087 0.027,-0.176 0.049,-0.261 0.04,-0.145 -0.018,-0.209 -0.159,-0.233 C 9.899,-9.636 9.251,-9.752 8.603,-9.873 8.466,-9.898 8.382,-9.872 8.364,-9.72 8.354,-9.632 8.332,-9.546 8.316,-9.458 7.87,-7.054 7.425,-4.648 6.979,-2.244 6.85,-1.547 6.716,-0.85 6.455,-0.186 5.966,1.054 4.86,1.721 3.534,1.574 3.142,1.53 2.76,1.436 2.398,1.274 1.665,0.948 1.167,0.399 0.904,-0.358 0.631,-1.138 0.606,-1.945 0.646,-2.76 c 0.036,-0.748 0.16,-1.485 0.296,-2.22 0.347,-1.882 0.698,-3.763 1.047,-5.644 0.016,-0.087 0.028,-0.176 0.049,-0.262 0.036,-0.141 -0.017,-0.209 -0.16,-0.234 -0.661,-0.12 -1.321,-0.244 -1.982,-0.37 -0.137,-0.027 -0.22,0.006 -0.236,0.156 -0.008,0.076 -0.026,0.15 -0.04,0.225 -0.765,4.188 -1.53,8.377 -2.293,12.565 -0.079,0.431 -0.139,0.392 0.32,0.479 0.561,0.106 1.123,0.205 1.681,0.32 0.197,0.041 0.269,-0.017 0.301,-0.212 C -0.279,1.48 -0.168,0.921 -0.065,0.36 -0.043,0.24 -0.022,0.12 0,0"
             style="fill:#1e694d;fill-opacity:1;fill-rule:nonzero;stroke:none"
             id="path1076" /></g><g
           id="g1078"
           transform="translate(207.9287,202.1271)"><path
             d="M 0,0 C 0.148,0.018 0.202,0.142 0.271,0.245 1.051,1.417 2.14,2.216 3.417,2.749 4.282,3.109 5.208,3.253 6.15,3.234 6.279,3.232 6.401,3.244 6.523,3.277 6.55,3.273 6.578,3.27 6.605,3.267 6.644,3.219 6.693,3.216 6.747,3.234 9.319,2.942 11.228,1.651 12.4,-0.644 c 1.482,-2.898 0.767,-6.371 -1.69,-8.526 -0.195,0.311 -0.134,0.661 -0.138,0.995 -0.005,0.368 0.09,0.727 0.209,1.076 0.849,2.504 -0.947,5.073 -3.587,5.051 -2.729,-0.023 -4.092,-2.464 -3.743,-4.36 0.295,-1.607 1.219,-2.637 2.772,-3.098 0.619,-0.184 1.184,-0.442 1.655,-0.889 0.054,-0.05 0.122,-0.092 0.126,-0.178 -0.094,-0.093 -0.251,-0.049 -0.338,-0.156 -1.711,-0.367 -3.345,-0.144 -4.907,0.634 -0.015,0.046 -0.043,0.063 -0.089,0.041 -0.051,0.025 -0.104,0.05 -0.155,0.075 -0.098,0.159 -0.274,0.216 -0.417,0.314 -1.712,1.175 -2.714,2.798 -3.053,4.836 -0.064,0.384 -0.071,0.776 -0.105,1.166 0.079,1.142 0.348,2.232 0.88,3.252 C -0.11,-0.279 -0.059,-0.138 0,0"
             style="fill:#0d4c34;fill-opacity:1;fill-rule:nonzero;stroke:none"
             id="path1080" /></g><g
           id="g1082"
           transform="translate(234.1606,200.9426)"><path
             d="M 0,0 C 1.532,0.264 3.049,0.203 4.547,-0.235 4.867,-0.329 4.87,-0.332 4.791,-0.641 4.607,-1.355 4.516,-2.082 4.491,-2.817 4.487,-2.919 4.48,-3.02 4.478,-3.121 4.475,-3.22 4.405,-3.244 4.328,-3.26 4.26,-3.272 4.203,-3.259 4.169,-3.191 c -0.028,0.056 -0.057,0.113 -0.086,0.17 -0.712,1.412 -1.916,2.093 -3.5,1.962 -0.71,-0.057 -1.406,-0.189 -2.046,-0.53 -1.214,-0.648 -1.832,-1.91 -1.641,-3.274 0.173,-1.236 0.827,-2.064 1.995,-2.497 0.822,-0.306 1.673,-0.498 2.534,-0.65 1.011,-0.178 2.017,-0.371 2.994,-0.692 0.3,-0.099 0.597,-0.212 0.89,-0.332 1.209,-0.492 2.034,-1.356 2.439,-2.598 0.632,-1.94 0.49,-3.795 -0.677,-5.518 -0.799,-1.18 -1.875,-2.022 -3.203,-2.521 -1.644,-0.616 -3.34,-0.81 -5.08,-0.492 -0.602,0.11 -1.172,0.314 -1.718,0.592 -0.151,0.077 -0.222,0.154 -0.199,0.348 0.099,0.858 0.077,1.718 -0.002,2.577 -0.005,0.051 -0.012,0.101 -0.017,0.152 -0.008,0.091 0.044,0.14 0.123,0.166 0.067,0.023 0.123,0.003 0.162,-0.058 0.049,-0.074 0.095,-0.15 0.145,-0.222 1.357,-1.987 3.491,-2.639 5.744,-1.966 0.39,0.116 0.766,0.266 1.112,0.481 1.53,0.948 2.043,2.545 1.556,4.299 -0.291,1.047 -0.947,1.766 -1.964,2.164 -0.888,0.348 -1.809,0.573 -2.74,0.76 -0.956,0.191 -1.912,0.384 -2.833,0.713 -0.286,0.102 -0.569,0.216 -0.845,0.34 -1.084,0.489 -1.839,1.289 -2.22,2.418 -0.363,1.075 -0.494,2.176 -0.233,3.293 0.369,1.578 1.375,2.647 2.791,3.36 C -1.609,-0.373 -0.816,-0.151 0,0"
             style="fill:#1e694d;fill-opacity:1;fill-rule:nonzero;stroke:none"
             id="path1084" /></g><g
           id="g1086"
           transform="translate(251.1245,189.4308)"><path
             d="M 0,0 C -0.11,0.603 -0.183,1.014 -0.26,1.425 -0.323,1.763 -0.327,1.767 -0.633,1.648 -1.152,1.448 -1.673,1.251 -2.187,1.036 -2.9,0.738 -3.59,0.396 -4.197,-0.095 c -1.342,-1.087 -1.143,-2.579 -0.51,-3.579 0.423,-0.668 1.061,-0.988 1.864,-0.963 0.322,0.01 0.625,0.08 0.929,0.173 1.355,0.412 2.177,1.56 2.134,2.968 C 0.203,-0.922 0.055,-0.37 0,0 M 0.655,-3.641 C 0.526,-3.824 0.419,-3.978 0.311,-4.13 -0.621,-5.443 -1.858,-6.274 -3.47,-6.496 c -0.999,-0.139 -1.945,0.012 -2.791,0.6 -0.683,0.474 -1.128,1.119 -1.352,1.915 -0.176,0.626 -0.262,1.262 -0.2,1.916 0.077,0.809 0.422,1.472 1.052,1.991 0.6,0.495 1.272,0.871 1.97,1.204 1.017,0.486 2.068,0.892 3.103,1.337 0.058,0.025 0.117,0.049 0.174,0.075 0.764,0.344 0.971,0.703 0.847,1.528 -0.077,0.504 -0.237,0.986 -0.51,1.421 C -1.627,6.208 -2.271,6.65 -3.111,6.764 -4.125,6.9 -5.079,6.697 -5.937,6.128 -6.654,5.651 -7.097,4.976 -7.323,4.15 -7.352,4.045 -7.325,3.893 -7.541,3.921 c -0.396,0.052 -0.457,0.064 -0.482,0.292 -0.045,0.39 -0.071,0.782 -0.114,1.172 -0.019,0.175 0.081,0.285 0.178,0.402 0.699,0.851 1.566,1.475 2.594,1.857 1.116,0.415 2.277,0.613 3.467,0.548 C -0.267,8.105 0.738,7.322 1.288,5.768 1.466,5.264 1.579,4.745 1.677,4.222 2.068,2.131 2.456,0.038 2.848,-2.054 c 0.063,-0.335 0.116,-0.673 0.261,-0.988 0.177,-0.386 0.375,-0.517 0.798,-0.51 0.333,0.005 0.65,0.1 0.971,0.168 0.099,0.021 0.223,0.101 0.298,-0.055 0.092,-0.194 0.09,-0.478 -0.029,-0.558 -0.78,-0.526 -1.579,-1.011 -2.544,-1.121 -0.759,-0.086 -1.301,0.226 -1.66,0.882 -0.1,0.183 -0.183,0.377 -0.288,0.595"
             style="fill:#1e694d;fill-opacity:1;fill-rule:nonzero;stroke:none"
             id="path1088" /></g><g
           id="g1090"
           transform="translate(283.0596,198.1584)"><path
             d="M 0,0 C -0.001,0.004 -0.001,0.009 -0.002,0.014 1.032,0.202 2.067,0.39 3.102,0.578 3.25,0.605 3.405,0.604 3.377,0.84 3.287,1.613 3.134,2.368 2.737,3.049 2.205,3.962 1.452,4.6 0.37,4.696 -1.063,4.824 -2.511,4.214 -3.106,2.519 -3.428,1.602 -3.457,0.659 -3.373,-0.294 -3.345,-0.604 -3.335,-0.605 -3.03,-0.551 -2.02,-0.369 -1.01,-0.184 0,0 m 2.04,-8.282 c -0.804,-0.163 -1.584,-0.222 -2.372,-0.145 -2.147,0.209 -3.754,1.27 -4.741,3.17 -0.978,1.886 -1.291,3.912 -0.9,6.012 0.474,2.548 2.294,4.38 4.83,4.926 0.822,0.177 1.65,0.282 2.49,0.182 C 3.42,5.619 4.833,4.482 5.68,2.606 6.026,1.84 6.213,1.024 6.335,0.195 6.381,-0.109 6.377,-0.115 6.067,-0.173 4.972,-0.379 3.875,-0.582 2.779,-0.785 0.922,-1.128 -0.935,-1.469 -2.792,-1.811 -3.187,-1.884 -3.187,-1.885 -3.115,-2.26 c 0.183,-0.952 0.473,-1.867 0.99,-2.693 0.788,-1.257 1.882,-2.049 3.408,-2.094 1.429,-0.042 2.724,0.373 3.846,1.275 0.408,0.328 0.742,0.725 0.999,1.183 0.059,0.104 0.112,0.196 0.256,0.179 C 6.521,-4.428 6.623,-4.454 6.627,-4.629 6.638,-5.072 6.662,-5.515 6.685,-5.957 6.694,-6.128 6.561,-6.198 6.459,-6.284 5.787,-6.853 5.041,-7.301 4.229,-7.64 3.514,-7.938 2.778,-8.167 2.04,-8.282"
             style="fill:#1e694d;fill-opacity:1;fill-rule:nonzero;stroke:none"
             id="path1092" /></g><g
           id="g1094"
           transform="translate(231.0771,204.4689)"><path
             d="M 0,0 C -2.219,-0.512 -4.787,0.976 -5.28,3.575 -5.766,6.14 -3.968,8.419 -1.679,8.853 0.607,9.285 3.127,7.857 3.609,5.223 4.083,2.631 2.265,0.353 0,0"
             style="fill:#9ac0b0;fill-opacity:1;fill-rule:nonzero;stroke:none"
             id="path1096" /></g><g
           id="g1098"
           transform="translate(290.6206,200.5383)"><path
             d="m 0,0 c -0.594,3.148 -1.063,5.483 -1.57,7.811 -0.142,0.655 -0.308,1.305 -0.462,1.96 -0.046,0.196 -0.08,0.396 -0.131,0.592 -0.042,0.165 0.025,0.226 0.182,0.253 0.698,0.124 1.396,0.252 2.093,0.387 C 0.269,11.033 0.353,11 0.37,10.831 0.383,10.692 0.417,10.557 0.436,10.418 1.185,4.969 2.235,-0.426 3.338,-5.812 3.473,-6.47 3.646,-7.118 3.8,-7.772 3.843,-7.957 3.875,-8.145 3.923,-8.328 3.966,-8.494 3.9,-8.565 3.741,-8.578 3.716,-8.58 3.691,-8.587 3.667,-8.592 3.019,-8.711 2.371,-8.832 1.722,-8.948 1.434,-9 1.423,-8.998 1.381,-8.719 1.275,-8.018 1.181,-7.314 1.079,-6.612 0.717,-4.131 0.302,-1.657 0,0"
             style="fill:#1e694d;fill-opacity:1;fill-rule:nonzero;stroke:none"
             id="path1100" /></g><g
           id="g1102"
           transform="translate(245.8511,165.9426)"><path
             d="m 0,0 c 0.062,-0.343 0.125,-0.69 0.189,-1.037 0.035,-0.185 -0.11,-0.167 -0.213,-0.187 -0.697,-0.131 -1.396,-0.255 -2.093,-0.391 -0.639,-0.124 -0.568,-0.007 -0.457,-0.65 0.03,-0.174 0.071,-0.347 0.095,-0.523 0.022,-0.16 0.095,-0.213 0.256,-0.18 0.335,0.071 0.673,0.128 1.009,0.191 0.623,0.116 1.247,0.228 1.868,0.352 0.173,0.035 0.26,0.003 0.284,-0.185 0.03,-0.239 0.087,-0.474 0.127,-0.711 0.048,-0.279 0.046,-0.284 -0.241,-0.337 -1.221,-0.228 -2.442,-0.455 -3.665,-0.673 -0.231,-0.041 -0.503,-0.206 -0.688,-0.067 -0.164,0.122 -0.122,0.421 -0.164,0.643 -0.316,1.668 -0.628,3.337 -0.941,5.006 -0.019,0.1 -0.037,0.199 -0.053,0.3 -0.016,0.091 0.029,0.143 0.116,0.163 0.061,0.014 0.124,0.025 0.186,0.037 1.333,0.249 2.666,0.499 4,0.747 0.321,0.06 0.323,0.056 0.387,-0.269 C 0.043,2.018 0.07,1.803 0.124,1.595 0.176,1.394 0.097,1.328 -0.091,1.294 -0.939,1.143 -1.786,0.979 -2.633,0.821 -2.732,0.802 -2.832,0.778 -2.932,0.765 -3.074,0.746 -3.125,0.676 -3.096,0.532 c 0.054,-0.26 0.107,-0.521 0.143,-0.785 0.027,-0.19 0.099,-0.25 0.299,-0.21 0.671,0.135 1.345,0.254 2.019,0.374 C -0.437,-0.054 -0.242,0.008 0,0"
             style="fill:#206a4e;fill-opacity:1;fill-rule:nonzero;stroke:none"
             id="path1104" /></g><g
           id="g1106"
           transform="translate(238.9673,174.2619)"><path
             d="m 0,0 c 0.163,-0.897 0.327,-1.794 0.489,-2.691 0.064,-0.353 0.124,-0.348 -0.304,-0.425 -0.2,-0.036 -0.399,-0.075 -0.598,-0.112 -0.435,-0.077 -0.379,-0.113 -0.458,0.299 -0.106,0.561 -0.209,1.121 -0.313,1.681 -0.014,0.075 -0.031,0.149 -0.043,0.225 -0.022,0.146 -0.109,0.18 -0.244,0.154 -0.697,-0.133 -1.394,-0.266 -2.092,-0.393 -0.175,-0.031 -0.185,-0.129 -0.157,-0.273 0.117,-0.611 0.228,-1.221 0.341,-1.831 0.014,-0.074 0.026,-0.15 0.043,-0.224 0.027,-0.12 -0.006,-0.189 -0.14,-0.212 -0.337,-0.056 -0.673,-0.122 -1.009,-0.186 -0.125,-0.024 -0.191,0.025 -0.209,0.15 -0.01,0.075 -0.027,0.15 -0.041,0.225 L -5.719,1.73 c -0.016,0.087 -0.031,0.175 -0.047,0.262 -0.021,0.111 0.032,0.163 0.136,0.183 0.337,0.06 0.673,0.121 1.009,0.186 0.126,0.026 0.193,-0.016 0.211,-0.143 0.011,-0.075 0.028,-0.15 0.041,-0.225 0.108,-0.585 0.214,-1.171 0.325,-1.756 0.052,-0.275 0.058,-0.282 0.31,-0.237 0.66,0.119 1.319,0.251 1.981,0.366 0.192,0.034 0.252,0.113 0.213,0.306 -0.124,0.621 -0.237,1.245 -0.35,1.867 -0.057,0.31 -0.053,0.313 0.244,0.37 0.261,0.051 0.523,0.1 0.785,0.145 0.267,0.045 0.268,0.043 0.324,-0.216 0.016,-0.074 0.029,-0.15 0.042,-0.225 0.159,-0.872 0.318,-1.744 0.476,-2.617 C -0.012,-0.002 -0.006,-0.001 0,0"
             style="fill:#206a4e;fill-opacity:1;fill-rule:nonzero;stroke:none"
             id="path1108" /></g><g
           id="g1110"
           transform="translate(259.3179,167.8156)"><path
             d="m 0,0 c 0.17,-0.935 0.341,-1.868 0.509,-2.804 0.048,-0.267 0.044,-0.271 -0.213,-0.322 -0.261,-0.053 -0.523,-0.099 -0.785,-0.145 -0.306,-0.054 -0.31,-0.054 -0.365,0.239 -0.117,0.61 -0.228,1.22 -0.343,1.831 -0.065,0.338 -0.067,0.339 -0.417,0.275 -0.623,-0.113 -1.246,-0.226 -1.869,-0.345 -0.267,-0.05 -0.272,-0.056 -0.225,-0.317 0.115,-0.636 0.238,-1.269 0.354,-1.905 0.053,-0.288 0.049,-0.29 -0.224,-0.344 -0.261,-0.051 -0.523,-0.1 -0.785,-0.144 -0.293,-0.051 -0.295,-0.05 -0.354,0.261 -0.069,0.362 -0.134,0.723 -0.2,1.084 -0.265,1.433 -0.531,2.865 -0.792,4.298 -0.095,0.518 -0.147,0.427 0.381,0.531 0.199,0.04 0.398,0.077 0.598,0.111 0.288,0.05 0.292,0.049 0.344,-0.228 0.115,-0.61 0.224,-1.221 0.338,-1.831 0.057,-0.307 0.061,-0.309 0.362,-0.255 0.637,0.115 1.272,0.233 1.907,0.354 0.275,0.052 0.279,0.057 0.225,0.347 -0.111,0.611 -0.229,1.22 -0.34,1.831 -0.052,0.29 -0.049,0.293 0.228,0.348 0.286,0.058 0.575,0.101 0.858,0.166 0.183,0.041 0.246,-0.02 0.277,-0.197 0.165,-0.948 0.341,-1.895 0.513,-2.842 z"
             style="fill:#206a4e;fill-opacity:1;fill-rule:nonzero;stroke:none"
             id="path1112" /></g><g
           id="g1114"
           transform="translate(268.7432,179.7912)"><path
             d="m 0,0 c 0.168,-0.922 0.336,-1.844 0.502,-2.766 0.053,-0.289 0.049,-0.292 -0.226,-0.345 -0.285,-0.057 -0.574,-0.1 -0.859,-0.162 -0.159,-0.036 -0.227,0.009 -0.255,0.173 -0.097,0.562 -0.205,1.121 -0.309,1.682 -0.018,0.1 -0.035,0.199 -0.056,0.299 -0.055,0.267 -0.057,0.273 -0.312,0.227 -0.661,-0.117 -1.32,-0.246 -1.983,-0.357 -0.194,-0.032 -0.252,-0.105 -0.212,-0.301 0.121,-0.596 0.227,-1.194 0.338,-1.792 0.017,-0.087 0.032,-0.174 0.048,-0.262 0.019,-0.1 -0.001,-0.172 -0.118,-0.193 -0.349,-0.063 -0.698,-0.127 -1.046,-0.194 -0.128,-0.025 -0.19,0.026 -0.206,0.151 -0.011,0.075 -0.028,0.15 -0.042,0.224 L -5.72,1.728 c -0.016,0.086 -0.031,0.174 -0.047,0.261 -0.016,0.092 0.025,0.145 0.114,0.161 0.361,0.067 0.722,0.134 1.084,0.198 0.155,0.028 0.152,-0.097 0.17,-0.192 0.085,-0.448 0.167,-0.896 0.25,-1.344 0.039,-0.212 0.085,-0.422 0.116,-0.635 0.023,-0.156 0.086,-0.22 0.252,-0.188 0.697,0.134 1.394,0.264 2.093,0.388 0.172,0.03 0.19,0.115 0.161,0.266 -0.125,0.633 -0.243,1.268 -0.359,1.904 -0.052,0.284 -0.048,0.287 0.233,0.342 0.261,0.051 0.523,0.099 0.785,0.144 0.287,0.05 0.293,0.048 0.345,-0.231 0.172,-0.935 0.341,-1.869 0.511,-2.804 C -0.008,-0.001 -0.004,0 0,0"
             style="fill:#1e694d;fill-opacity:1;fill-rule:nonzero;stroke:none"
             id="path1116" /></g><g
           id="g1118"
           transform="translate(240.4077,174.5666)"><path
             d="M 0,0 C -0.167,0.921 -0.336,1.843 -0.502,2.765 -0.557,3.066 -0.554,3.07 -0.249,3.127 1.096,3.376 2.441,3.624 3.787,3.871 4.084,3.925 4.086,3.922 4.146,3.616 4.178,3.455 4.207,3.293 4.237,3.131 4.324,2.657 4.333,2.729 3.92,2.652 3.086,2.496 2.251,2.345 1.417,2.19 0.978,2.108 1.001,2.16 1.081,1.722 1.11,1.56 1.14,1.397 1.171,1.235 1.241,0.865 1.242,0.863 1.599,0.929 2.309,1.061 3.018,1.194 3.728,1.327 3.802,1.342 3.878,1.351 3.952,1.369 4.093,1.406 4.16,1.355 4.183,1.21 4.224,0.948 4.27,0.686 4.329,0.427 4.369,0.249 4.314,0.179 4.134,0.147 3.398,0.02 2.664,-0.12 1.929,-0.256 1.842,-0.272 1.755,-0.294 1.667,-0.304 1.522,-0.319 1.474,-0.392 1.503,-0.533 1.563,-0.831 1.619,-1.13 1.67,-1.43 c 0.025,-0.141 0.093,-0.195 0.236,-0.156 0.085,0.024 0.174,0.032 0.261,0.049 0.872,0.16 1.744,0.322 2.616,0.48 0.259,0.046 0.262,0.041 0.315,-0.222 C 5.143,-1.503 5.184,-1.727 5.222,-1.951 5.264,-2.207 5.262,-2.209 4.995,-2.263 4.833,-2.296 4.671,-2.323 4.509,-2.353 3.338,-2.569 2.167,-2.786 0.996,-3.001 0.54,-3.084 0.593,-3.127 0.505,-2.649 0.341,-1.766 0.182,-0.881 0.021,0.004 0.014,0.002 0.007,0.001 0,0"
             style="fill:#1e694d;fill-opacity:1;fill-rule:nonzero;stroke:none"
             id="path1120" /></g><g
           id="g1122"
           transform="translate(223.5718,202.3234)"><path
             d="m 0,0 c -1.343,-0.247 -2.623,0.627 -2.875,1.964 -0.255,1.344 0.647,2.646 2,2.889 C 0.459,5.092 1.737,4.199 1.98,2.858 2.224,1.513 1.347,0.248 0,0"
             style="fill:#1e694d;fill-opacity:1;fill-rule:nonzero;stroke:none"
             id="path1124" /></g><g
           id="g1126"
           transform="translate(225.4429,174.3088)"><path
             d="M 0,0 C -1.351,-0.246 -2.61,0.623 -2.858,1.974 -3.104,3.316 -2.231,4.597 -0.895,4.852 0.44,5.106 1.766,4.189 1.999,2.851 2.232,1.508 1.347,0.245 0,0"
             style="fill:#1e694d;fill-opacity:1;fill-rule:nonzero;stroke:none"
             id="path1128" /></g><g
           id="g1130"
           transform="translate(249.9258,175.8264)"><path
             d="M 0,0 C -0.39,0.604 -0.758,1.176 -1.169,1.813 -1.325,1.065 -1.462,0.401 -1.606,-0.293 -1.058,-0.192 -0.552,-0.101 0,0 M 2.902,-2.157 C 2.494,-2.231 2.086,-2.303 1.68,-2.382 1.53,-2.411 1.479,-2.309 1.417,-2.214 c -0.179,0.276 -0.366,0.548 -0.53,0.832 -0.109,0.191 -0.229,0.26 -0.459,0.212 -0.669,-0.142 -1.342,-0.267 -2.017,-0.378 -0.23,-0.038 -0.319,-0.143 -0.353,-0.361 -0.051,-0.324 -0.136,-0.644 -0.193,-0.968 -0.029,-0.161 -0.101,-0.235 -0.267,-0.26 -0.373,-0.054 -0.743,-0.131 -1.108,-0.197 -0.059,0.144 -0.002,0.252 0.022,0.36 0.441,1.99 0.89,3.977 1.324,5.967 0.056,0.258 0.152,0.398 0.43,0.416 0.226,0.016 0.45,0.07 0.672,0.121 0.153,0.035 0.256,0.015 0.351,-0.13 C 0.481,1.595 1.68,-0.208 2.875,-2.012 2.893,-2.04 2.889,-2.083 2.902,-2.157"
             style="fill:#206a4e;fill-opacity:1;fill-rule:nonzero;stroke:none"
             id="path1132" /></g><g
           id="g1134"
           transform="translate(252.5391,168.842)"><path
             d="m 0,0 c -0.213,-0.363 -0.429,-0.731 -0.65,-1.107 -0.185,0.087 -0.342,0.17 -0.504,0.238 -1.012,0.426 -2.07,0.061 -2.492,-0.855 -0.447,-0.969 -0.041,-2.231 0.882,-2.697 0.648,-0.327 1.277,-0.225 1.879,0.138 0.153,0.092 0.279,0.219 0.406,0.342 0.116,0.111 0.184,0.333 0.345,0.32 0.143,-0.011 0.278,-0.16 0.414,-0.251 0.126,-0.085 0.244,-0.184 0.377,-0.258 0.175,-0.098 0.184,-0.191 0.068,-0.357 -0.464,-0.662 -1.091,-1.075 -1.864,-1.293 -1.616,-0.456 -3.248,0.302 -3.868,1.861 -0.826,2.075 0.392,4.041 2.325,4.429 0.779,0.156 1.536,0.145 2.261,-0.221 C -0.275,0.216 -0.121,0.153 0,0"
             style="fill:#206a4e;fill-opacity:1;fill-rule:nonzero;stroke:none"
             id="path1136" /></g><g
           id="g1138"
           transform="translate(237.5786,166.9758)"><path
             d="M 0,0 C 0.747,0.136 1.495,0.273 2.242,0.407 2.529,0.458 2.532,0.455 2.588,0.174 2.637,-0.074 2.674,-0.325 2.729,-0.572 2.767,-0.735 2.71,-0.8 2.552,-0.827 2.102,-0.903 1.654,-0.988 1.207,-1.074 0.904,-1.133 0.899,-1.137 0.956,-1.44 1.216,-2.859 1.48,-4.278 1.741,-5.697 1.804,-6.036 1.801,-6.037 1.457,-6.103 1.196,-6.152 0.932,-6.189 0.673,-6.251 0.491,-6.295 0.429,-6.233 0.398,-6.058 c -0.115,0.662 -0.243,1.32 -0.367,1.979 -0.148,0.783 -0.295,1.567 -0.444,2.35 -0.064,0.338 -0.067,0.339 -0.416,0.275 -0.411,-0.075 -0.821,-0.156 -1.233,-0.229 -0.277,-0.048 -0.28,-0.045 -0.338,0.246 -0.042,0.211 -0.081,0.423 -0.118,0.635 -0.055,0.313 -0.054,0.317 0.278,0.378 0.747,0.139 1.495,0.274 2.242,0.409 C 0.001,-0.01 0.001,-0.005 0,0"
             style="fill:#206a4e;fill-opacity:1;fill-rule:nonzero;stroke:none"
             id="path1140" /></g><g
           id="g1142"
           transform="translate(259.3647,181.2629)"><path
             d="M 0,0 C 0.76,0.138 1.52,0.278 2.281,0.413 2.54,0.46 2.544,0.455 2.597,0.191 2.645,-0.045 2.688,-0.281 2.728,-0.519 2.772,-0.786 2.771,-0.791 2.51,-0.842 2.1,-0.922 1.688,-0.995 1.277,-1.072 0.91,-1.141 0.908,-1.142 0.974,-1.497 1.229,-2.866 1.486,-4.235 1.742,-5.604 1.758,-5.691 1.772,-5.779 1.79,-5.866 1.812,-5.968 1.789,-6.04 1.674,-6.061 1.312,-6.127 0.952,-6.195 0.59,-6.26 0.503,-6.274 0.446,-6.235 0.429,-6.145 c -0.015,0.088 -0.033,0.175 -0.05,0.262 -0.257,1.395 -0.514,2.789 -0.772,4.184 -0.057,0.303 -0.061,0.306 -0.359,0.253 -0.437,-0.077 -0.873,-0.154 -1.308,-0.243 -0.181,-0.038 -0.284,-0.014 -0.31,0.197 -0.032,0.263 -0.084,0.525 -0.143,0.784 -0.041,0.181 0.02,0.248 0.197,0.278 0.774,0.134 1.545,0.279 2.318,0.418 C 0.001,-0.008 0,-0.004 0,0"
             style="fill:#206a4e;fill-opacity:1;fill-rule:nonzero;stroke:none"
             id="path1144" /></g><g
           id="g1146"
           transform="translate(256.0278,174.258)"><path
             d="m 0,0 c -0.611,-0.111 -1.221,-0.223 -1.832,-0.333 -0.367,-0.066 -0.369,-0.066 -0.435,0.293 -0.315,1.706 -0.631,3.411 -0.94,5.117 -0.039,0.219 -0.19,0.474 -0.059,0.653 0.118,0.16 0.397,0.119 0.606,0.158 0.209,0.038 0.454,0.177 0.622,0.072 0.191,-0.119 0.139,-0.412 0.18,-0.63 0.238,-1.256 0.467,-2.514 0.699,-3.77 0.016,-0.087 0.036,-0.174 0.048,-0.262 0.017,-0.14 0.082,-0.204 0.228,-0.168 0.074,0.018 0.15,0.027 0.224,0.042 C 0.113,1.313 0.885,1.456 1.658,1.598 2.017,1.664 1.989,1.686 2.059,1.31 2.099,1.098 2.129,0.885 2.181,0.676 2.228,0.488 2.18,0.404 1.979,0.371 1.316,0.262 0.657,0.135 -0.003,0.015 Z"
             style="fill:#206a4e;fill-opacity:1;fill-rule:nonzero;stroke:none"
             id="path1148" /></g><g
           id="g1150"
           transform="translate(214.6758,205.3615)"><path
             d="M 0,0 C -0.054,-0.019 -0.103,-0.016 -0.142,0.032 -0.087,0.054 -0.041,0.039 0,0"
             style="fill:#1c684c;fill-opacity:1;fill-rule:nonzero;stroke:none"
             id="path1152" /></g><g
           id="g1154"
           transform="translate(210.5991,192.0734)"><path
             d="M 0,0 C 0.046,0.021 0.074,0.005 0.088,-0.041 0.046,-0.056 0.016,-0.044 0,0"
             style="fill:#9ac0b0;fill-opacity:1;fill-rule:nonzero;stroke:none"
             id="path1156" /></g></g></g></g></svg>
