<?xml version="1.0" encoding="UTF-8" standalone="no"?>
<!-- Created with Inkscape (http://www.inkscape.org/) -->

<svg
   version="1.1"
   id="svg2"
   xml:space="preserve"
   width="186.33675"
   height="101.95805"
   viewBox="0 0 186.33675 101.95805"
   sodipodi:docname="sam_braco.svg"
   inkscape:version="1.1.1 (3bf5ae0d25, 2021-09-20, custom)"
   xmlns:inkscape="http://www.inkscape.org/namespaces/inkscape"
   xmlns:sodipodi="http://sodipodi.sourceforge.net/DTD/sodipodi-0.dtd"
   xmlns="http://www.w3.org/2000/svg"
   xmlns:svg="http://www.w3.org/2000/svg"><defs
     id="defs6"><clipPath
       clipPathUnits="userSpaceOnUse"
       id="clipPath16"><path
         d="M 0,595.276 H 841.89 V 0 H 0 Z"
         id="path14" /></clipPath><clipPath
       clipPathUnits="userSpaceOnUse"
       id="clipPath44"><path
         d="m 217.025,134.745 h 56.586 V 82.3506 h -56.586 z"
         id="path42" /></clipPath><linearGradient
       x1="0"
       y1="0"
       x2="1"
       y2="0"
       gradientUnits="userSpaceOnUse"
       gradientTransform="matrix(-14.029309,60.531921,60.531921,14.029309,254.83318,78.187134)"
       spreadMethod="pad"
       id="linearGradient54"><stop
         style="stop-opacity:1;stop-color:#004519"
         offset="0"
         id="stop50" /><stop
         style="stop-opacity:1;stop-color:#d1e6ce"
         offset="1"
         id="stop52" /></linearGradient><clipPath
       clipPathUnits="userSpaceOnUse"
       id="clipPath76"><path
         d="m 269.316,155.494 h 43.432 V 84.3093 h -43.432 z"
         id="path74" /></clipPath><linearGradient
       x1="0"
       y1="0"
       x2="1"
       y2="0"
       gradientUnits="userSpaceOnUse"
       gradientTransform="matrix(-14.336326,61.856598,61.856598,14.336326,302.92853,88.304764)"
       spreadMethod="pad"
       id="linearGradient86"><stop
         style="stop-opacity:1;stop-color:#004519"
         offset="0"
         id="stop82" /><stop
         style="stop-opacity:1;stop-color:#d1e6ce"
         offset="1"
         id="stop84" /></linearGradient><clipPath
       clipPathUnits="userSpaceOnUse"
       id="clipPath116"><path
         d="m 105.938,225.254 h 122.04 v -88.347 h -122.04 z"
         id="path114" /></clipPath><linearGradient
       x1="0"
       y1="0"
       x2="1"
       y2="0"
       gradientUnits="userSpaceOnUse"
       gradientTransform="matrix(-14.65332,76.117409,76.117409,14.65332,174.68439,148.37431)"
       spreadMethod="pad"
       id="linearGradient126"><stop
         style="stop-opacity:1;stop-color:#004519"
         offset="0"
         id="stop122" /><stop
         style="stop-opacity:1;stop-color:#d1e6ce"
         offset="1"
         id="stop124" /></linearGradient><clipPath
       clipPathUnits="userSpaceOnUse"
       id="clipPath156"><path
         d="M 262.391,264.686 H 407.192 V 213.473 H 262.391 Z"
         id="path154" /></clipPath><linearGradient
       x1="0"
       y1="0"
       x2="1"
       y2="0"
       gradientUnits="userSpaceOnUse"
       gradientTransform="matrix(-26.728968,72.760857,-72.760857,-26.728968,347.18564,193.1064)"
       spreadMethod="pad"
       id="linearGradient166"><stop
         style="stop-opacity:1;stop-color:#004519"
         offset="0"
         id="stop162" /><stop
         style="stop-opacity:1;stop-color:#d1e6ce"
         offset="1"
         id="stop164" /></linearGradient><clipPath
       clipPathUnits="userSpaceOnUse"
       id="clipPath196"><path
         d="M 174.136,267.854 H 298.784 V 227.07 H 174.136 Z"
         id="path194" /></clipPath><linearGradient
       x1="0"
       y1="0"
       x2="1"
       y2="0"
       gradientUnits="userSpaceOnUse"
       gradientTransform="matrix(4.8395267,-29.682648,-27.255257,-4.4437623,234.57082,261.19907)"
       spreadMethod="pad"
       id="linearGradient206"><stop
         style="stop-opacity:1;stop-color:#004519"
         offset="0"
         id="stop202" /><stop
         style="stop-opacity:1;stop-color:#d1e6ce"
         offset="1"
         id="stop204" /></linearGradient><clipPath
       clipPathUnits="userSpaceOnUse"
       id="clipPath240"><path
         d="M 184.258,460.139 C 122.693,444.837 85.189,382.524 100.492,320.959 v 0 c 15.302,-61.565 77.615,-99.068 139.18,-83.766 v 0 c 61.565,15.303 99.067,77.616 83.765,139.18 v 0 c -12.991,52.265 -59.854,87.189 -111.385,87.185 v 0 c -9.169,-10e-4 -18.494,-1.107 -27.794,-3.419"
         id="path238" /></clipPath><clipPath
       clipPathUnits="userSpaceOnUse"
       id="clipPath248"><path
         d="m 127.23,492.358 h 91.591 V 394.367 H 127.23 Z"
         id="path246" /></clipPath><clipPath
       clipPathUnits="userSpaceOnUse"
       id="clipPath288"><path
         d="m 225.923,491.575 h 91.591 v -97.991 h -91.591 z"
         id="path286" /></clipPath><clipPath
       clipPathUnits="userSpaceOnUse"
       id="clipPath328"><path
         d="m 275.27,409.331 h 91.591 V 311.34 H 275.27 Z"
         id="path326" /></clipPath><clipPath
       clipPathUnits="userSpaceOnUse"
       id="clipPath368"><path
         d="m 247.855,330.219 h 91.591 v -97.991 h -91.591 z"
         id="path366" /></clipPath><clipPath
       clipPathUnits="userSpaceOnUse"
       id="clipPath408"><path
         d="m 160.158,292.724 h 91.591 v -97.991 h -91.591 z"
         id="path406" /></clipPath><clipPath
       clipPathUnits="userSpaceOnUse"
       id="clipPath448"><path
         d="M 89.6627,335.021 H 181.254 V 237.03 H 89.6627 Z"
         id="path446" /></clipPath><clipPath
       clipPathUnits="userSpaceOnUse"
       id="clipPath488"><path
         d="M 77.9135,427.448 H 169.504 V 329.457 H 77.9135 Z"
         id="path486" /></clipPath><clipPath
       clipPathUnits="userSpaceOnUse"
       id="clipPath528"><path
         d="M 0,595.276 H 841.89 V 0 H 0 Z"
         id="path526" /></clipPath><clipPath
       clipPathUnits="userSpaceOnUse"
       id="clipPath548"><path
         d="m 143.805,422.802 h 143.959 v -59.68 H 143.805 Z"
         id="path546" /></clipPath><linearGradient
       x1="0"
       y1="0"
       x2="1"
       y2="0"
       gradientUnits="userSpaceOnUse"
       gradientTransform="matrix(140.37624,34.891148,34.891148,-140.37624,142.23251,374.59894)"
       spreadMethod="pad"
       id="linearGradient558"><stop
         style="stop-opacity:1;stop-color:#000000"
         offset="0"
         id="stop554" /><stop
         style="stop-opacity:1;stop-color:#6a9bff"
         offset="1"
         id="stop556" /></linearGradient><clipPath
       clipPathUnits="userSpaceOnUse"
       id="clipPath580"><path
         d="m 200.463,275.128 h 77.926 v -28.947 h -77.926 z"
         id="path578" /></clipPath><linearGradient
       x1="0"
       y1="0"
       x2="1"
       y2="0"
       gradientUnits="userSpaceOnUse"
       gradientTransform="matrix(78.167831,19.428966,19.428966,-78.167831,201.15709,250.80524)"
       spreadMethod="pad"
       id="linearGradient590"><stop
         style="stop-opacity:1;stop-color:#000000"
         offset="0"
         id="stop586" /><stop
         style="stop-opacity:1;stop-color:#6a9bff"
         offset="1"
         id="stop588" /></linearGradient><clipPath
       clipPathUnits="userSpaceOnUse"
       id="clipPath620"><path
         d="M 178.387,237.705 H 316.93 V 123.368 H 178.387 Z"
         id="path618" /></clipPath><linearGradient
       x1="0"
       y1="0"
       x2="1"
       y2="0"
       gradientUnits="userSpaceOnUse"
       gradientTransform="matrix(-22.712809,97.998406,97.998406,22.712809,267.38034,124.97034)"
       spreadMethod="pad"
       id="linearGradient630"><stop
         style="stop-opacity:1;stop-color:#004519"
         offset="0"
         id="stop626" /><stop
         style="stop-opacity:1;stop-color:#d1e6ce"
         offset="1"
         id="stop628" /></linearGradient><clipPath
       clipPathUnits="userSpaceOnUse"
       id="clipPath652"><path
         d="m 235.147,154.666 h 63.237 v -25.768 h -63.237 z"
         id="path650" /></clipPath><linearGradient
       x1="0"
       y1="0"
       x2="1"
       y2="0"
       gradientUnits="userSpaceOnUse"
       gradientTransform="matrix(-4.1853938,18.058618,18.058618,4.1853938,270.20419,130.73421)"
       spreadMethod="pad"
       id="linearGradient662"><stop
         style="stop-opacity:1;stop-color:#d4e2ff"
         offset="0"
         id="stop658" /><stop
         style="stop-opacity:1;stop-color:#000000"
         offset="1"
         id="stop660" /></linearGradient><clipPath
       clipPathUnits="userSpaceOnUse"
       id="clipPath688"><path
         d="m 521.698,378.442 c -13.319,-62.025 26.164,-123.101 88.189,-136.42 v 0 c 62.024,-13.319 123.101,26.165 136.42,88.19 v 0 c 13.318,62.023 -26.166,123.101 -88.19,136.419 v 0 c -8.128,1.745 -16.239,2.584 -24.229,2.584 v 0 c -52.982,0 -100.617,-36.877 -112.19,-90.773"
         id="path686" /></clipPath><clipPath
       clipPathUnits="userSpaceOnUse"
       id="clipPath696"><path
         d="m 594.679,506.38 h 95.957 V 405.663 h -95.957 z"
         id="path694" /></clipPath><clipPath
       clipPathUnits="userSpaceOnUse"
       id="clipPath736"><path
         d="m 682.981,462.292 h 95.957 V 361.576 h -95.957 z"
         id="path734" /></clipPath><clipPath
       clipPathUnits="userSpaceOnUse"
       id="clipPath776"><path
         d="m 691.15,366.728 h 95.958 V 266.012 H 691.15 Z"
         id="path774" /></clipPath><clipPath
       clipPathUnits="userSpaceOnUse"
       id="clipPath816"><path
         d="m 631.75,307.722 h 95.958 V 207.006 H 631.75 Z"
         id="path814" /></clipPath><clipPath
       clipPathUnits="userSpaceOnUse"
       id="clipPath856"><path
         d="m 536.498,312.594 h 95.957 V 211.878 h -95.957 z"
         id="path854" /></clipPath><clipPath
       clipPathUnits="userSpaceOnUse"
       id="clipPath896"><path
         d="M 491.772,381.574 H 587.73 V 280.857 h -95.958 z"
         id="path894" /></clipPath><clipPath
       clipPathUnits="userSpaceOnUse"
       id="clipPath936"><path
         d="m 521.849,469.756 h 95.957 V 369.04 h -95.957 z"
         id="path934" /></clipPath><clipPath
       clipPathUnits="userSpaceOnUse"
       id="clipPath976"><path
         d="M 0,595.276 H 841.89 V 0 H 0 Z"
         id="path974" /></clipPath><clipPath
       clipPathUnits="userSpaceOnUse"
       id="clipPath992"><path
         d="M 581.092,424.961 H 719.826 V 351.868 H 581.092 Z"
         id="path990" /></clipPath><linearGradient
       x1="0"
       y1="0"
       x2="1"
       y2="0"
       gradientUnits="userSpaceOnUse"
       gradientTransform="matrix(141.42369,-30.368051,-30.368051,-141.42369,582.76788,408.27258)"
       spreadMethod="pad"
       id="linearGradient1002"><stop
         style="stop-opacity:1;stop-color:#000000"
         offset="0"
         id="stop998" /><stop
         style="stop-opacity:1;stop-color:#6a9bff"
         offset="1"
         id="stop1000" /></linearGradient><clipPath
       clipPathUnits="userSpaceOnUse"
       id="clipPath1024"><path
         d="m 581.591,278.32 h 79.348 v -26.464 h -79.348 z"
         id="path1022" /></clipPath><linearGradient
       x1="0"
       y1="0"
       x2="1"
       y2="0"
       gradientUnits="userSpaceOnUse"
       gradientTransform="matrix(78.751099,-16.910303,-16.910303,-78.751099,581.27612,271.17859)"
       spreadMethod="pad"
       id="linearGradient1034"><stop
         style="stop-opacity:1;stop-color:#000000"
         offset="0"
         id="stop1030" /><stop
         style="stop-opacity:1;stop-color:#6a9bff"
         offset="1"
         id="stop1032" /></linearGradient></defs><sodipodi:namedview
     id="namedview4"
     pagecolor="#505050"
     bordercolor="#eeeeee"
     borderopacity="1"
     inkscape:pageshadow="0"
     inkscape:pageopacity="0"
     inkscape:pagecheckerboard="0"
     showgrid="false"
     inkscape:zoom="0.73231797"
     inkscape:cx="364.59573"
     inkscape:cy="76.469515"
     inkscape:window-width="1920"
     inkscape:window-height="1026"
     inkscape:window-x="0"
     inkscape:window-y="22"
     inkscape:window-maximized="1"
     inkscape:current-layer="g12" /><g
     id="g8"
     inkscape:groupmode="layer"
     inkscape:label="CHAT BOT SAM"
     transform="matrix(1.3333333,0,0,-1.3333333,-241.41568,373.48086)"><g
       id="g10"
       transform="rotate(-11.983781,226.8995,230.48277)"><g
         id="g12"
         clip-path="url(#clipPath16)"><g
           id="g146"
           transform="translate(182.29492,238.94111)"><path
             d="m 0,0 c 0,0 129.061,-20.164 137.5,-16.1 8.44,4.066 -2.757,22.525 -2.757,22.525 -1.667,0.945 -18.203,6.046 -20.126,6.997 l -1.179,0.38 C 91.018,22.968 58.381,33.574 41.373,37.496 l -0.021,0.01 C 34.196,39.158 29.471,39.724 29.079,38.717 26.071,31.198 0,0 0,0"
             style="fill:#bfe2cf;fill-opacity:1;fill-rule:nonzero;stroke:none"
             id="path148" /></g><g
           id="g150"
           transform="translate(-84.24708,8.83811)"><g
             id="g152" /><g
             id="g180"><g
               clip-path="url(#clipPath156)"
               opacity="0.300003"
               id="g178"><g
                 id="g176"><g
                   id="g174"><g
                     id="g172"><g
                       id="g170"><path
                         d="m 262.391,230.58 c 0,0 133.213,-20.641 141.652,-16.577 8.439,4.065 -2.758,22.525 -2.758,22.525 -1.667,0.944 -3.484,1.884 -5.408,2.835 l -0.02,0.01 c 0,0 -7.123,-8.709 -24.823,-12.301 -17.716,-3.596 -42.375,35.892 -42.375,35.892 l -0.02,0.01 c -7.156,1.652 -11.882,2.218 -12.273,1.211 -3.009,-7.519 -53.975,-33.605 -53.975,-33.605"
                         style="fill:url(#linearGradient166);stroke:none"
                         id="path168" /></g></g></g></g></g></g></g><g
           id="g182"
           transform="translate(240.89727,256.43924)"><path
             d="M 0,0 C 0.131,-2.44 -17.461,-1.173 -19.898,5.322 -22.336,11.817 -0.188,3.52 0,0"
             style="fill:#ffffff;fill-opacity:1;fill-rule:nonzero;stroke:none"
             id="path184" /></g></g></g></g></svg>
